<?xml version="1.0" encoding="UTF-8"?>
<!DOCTYPE svg PUBLIC "-//W3C//DTD SVG 1.1//EN" "http://www.w3.org/Graphics/SVG/1.1/DTD/svg11.dtd">
<!-- Creator: CorelDRAW -->
<svg xmlns="http://www.w3.org/2000/svg" xml:space="preserve" width="1000mm" height="1200mm" style="shape-rendering:geometricPrecision; text-rendering:geometricPrecision; image-rendering:optimizeQuality; fill-rule:evenodd; clip-rule:evenodd"
viewBox="0 0 1000 1200"
 xmlns:xlink="http://www.w3.org/1999/xlink">
 <defs>
  <style type="text/css">
   <![CDATA[
    .str0 {stroke:#E7AE18;stroke-width:20}
    .fil0 {fill:#1F1A17}
   ]]>
  </style>
 </defs>
 <g id="Capa_x0020_1">
  <metadata id="CorelCorpID_0Corel-Layer"/>
  <path class="fil0 str0" d="M0.0002 1200l149.997 -0.0002c0,-158.522 105.445,-292.464 250.003,-335.501l0 335.501 200 0 0.0007 -335.498c144.556,43.04 249.996,176.98 249.996,335.498l150.003 0.0002 0 -0.0005 -0.0004 0.0003c0,-241.85 -171.805,-443.652 -400,-489.993l0.0001 -10.0065 400 0 0 -200 -400 0.0001 0.0004 -10.0064c228.185,-46.3387 399.985,-248.126 400,-489.962l0 0 0 -0.0317 -150 0c0,154.034 -102.442,291.572 -250,335.495l0 -335.495 -200 0 -0.0001 335.5c-144.558,-43.0383 -250,-176.98 -250,-335.5 0,0 0,-0.0001 0,-0.0001l-150 0c0,0 0,0.0001 0,0.0001 0,241.85 171.805,443.653 399.999,489.993l0.0007 10.0066 -400 0 0 200 400 0 -0.0004 10.0063c-228.165,46.3345 -399.955,248.091 -400,489.899l0.0003 0.0946z"/>
 </g>
</svg>
